<svg width="153" height="33" viewBox="0 0 153 33" fill="none" xmlns="http://www.w3.org/2000/svg">
    <g clip-path="url(#clip0)">
        <path d="M54.2543 18.9018L53.3484 21.4629H53.2729C53.1219 20.8854 52.8451 20.0066 52.3922 18.952L47.5357 6.77415H42.7798V26.1834H45.9252V14.2064C45.9252 13.4531 45.9252 12.5994 45.9 11.5449C45.8749 11.0176 45.8245 10.6158 45.7994 10.3145H45.8749C46.0259 11.0678 46.202 11.6202 46.3278 11.9717L52.1657 26.1332H54.3801L60.1676 11.8462C60.2935 11.5197 60.4193 10.8669 60.5451 10.3145H60.6206C60.5451 11.7457 60.4948 13.0263 60.4696 13.8047V26.1081H63.8163V6.72394H59.2366L54.2543 18.9018ZM66.9869 12.1977H70.2581V26.1081H66.9869V12.1977ZM68.6477 6.32219C68.0941 6.32219 67.6412 6.52306 67.2637 6.87459C66.8863 7.22611 66.6849 7.67808 66.6849 8.23047C66.6849 8.75776 66.8863 9.20972 67.2637 9.56125C67.6412 9.91277 68.0941 10.0885 68.6477 10.0885C69.2013 10.0885 69.6794 9.88767 70.0317 9.56125C70.4091 9.20972 70.6104 8.75776 70.6104 8.23047C70.6104 7.70319 70.4091 7.25122 70.0317 6.87459C69.7045 6.52306 69.2264 6.32219 68.6477 6.32219ZM81.8584 12.0721C81.2545 11.9466 80.6254 11.8713 80.0215 11.8713C78.5369 11.8713 77.1781 12.1977 76.0457 12.8505C74.9134 13.5034 74.0075 14.4073 73.4287 15.5372C72.8248 16.6922 72.5228 18.023 72.5228 19.5546C72.5228 20.8854 72.8248 22.0655 73.4036 23.1452C73.9823 24.1998 74.7875 25.0535 75.8696 25.631C76.9013 26.2085 78.1091 26.5098 79.4679 26.5098C81.028 26.5098 82.3617 26.1834 83.4186 25.5808L83.4437 25.5557V22.5426L83.3179 22.643C82.8398 22.9945 82.2862 23.2959 81.7326 23.4716C81.1539 23.6725 80.6254 23.7729 80.1725 23.7729C78.864 23.7729 77.8323 23.3963 77.1026 22.5677C76.3477 21.7642 75.9702 20.6594 75.9702 19.2784C75.9702 17.8472 76.3477 16.7173 77.1277 15.8887C77.9078 15.0601 78.9395 14.6333 80.1977 14.6333C81.2545 14.6333 82.3365 14.9848 83.3179 15.6878L83.4437 15.7883V12.5994L83.4186 12.5743C82.9908 12.3986 82.5127 12.1977 81.8584 12.0721ZM92.6535 11.9717C91.8483 11.9717 91.0934 12.2228 90.4391 12.7501C89.8855 13.202 89.5081 13.8549 89.181 14.6333H89.1558V12.1977H85.8846V26.1081H89.1558V19.0022C89.1558 17.797 89.4074 16.7926 89.961 16.0645C90.5146 15.3112 91.2192 14.9346 92.0747 14.9346C92.3767 14.9346 92.6787 15.0099 93.0561 15.0601C93.4084 15.1606 93.66 15.261 93.8362 15.3865L93.962 15.487V12.2228L93.8865 12.1977C93.66 12.047 93.2071 11.9717 92.6535 11.9717ZM101.561 11.8964C99.2715 11.8964 97.4345 12.5743 96.1512 13.9051C94.8427 15.2359 94.2136 17.0688 94.2136 19.3789C94.2136 21.5382 94.8679 23.2959 96.126 24.5764C97.3842 25.8319 99.0953 26.4847 101.234 26.4847C103.474 26.4847 105.26 25.8068 106.544 24.4509C107.852 23.095 108.481 21.2871 108.481 19.0524C108.481 16.8429 107.877 15.0852 106.644 13.8047C105.462 12.5241 103.725 11.8964 101.561 11.8964ZM104.178 22.5928C103.574 23.3712 102.618 23.7478 101.436 23.7478C100.253 23.7478 99.2966 23.3712 98.6172 22.5426C97.9378 21.7642 97.6107 20.6343 97.6107 19.2031C97.6107 17.7217 97.963 16.5918 98.6172 15.7883C99.2966 14.9848 100.228 14.583 101.41 14.583C102.568 14.583 103.474 14.9597 104.128 15.7381C104.782 16.5164 105.135 17.6463 105.135 19.1278C105.084 20.6343 104.807 21.8144 104.178 22.5928ZM115.779 17.9728C114.747 17.5459 114.093 17.2195 113.791 16.9433C113.539 16.6922 113.413 16.3407 113.413 15.8887C113.413 15.5121 113.564 15.1354 113.942 14.8843C114.319 14.6333 114.747 14.5077 115.376 14.5077C115.93 14.5077 116.508 14.6082 117.062 14.7588C117.616 14.9095 118.119 15.1354 118.521 15.4367L118.647 15.5372V12.4739L118.572 12.4488C118.194 12.2981 117.691 12.1475 117.087 12.0219C116.483 11.9215 115.93 11.8713 115.477 11.8713C113.917 11.8713 112.633 12.2479 111.627 13.0765C110.62 13.8549 110.142 14.9095 110.142 16.1398C110.142 16.7926 110.243 17.3701 110.469 17.8472C110.696 18.3243 111.023 18.7762 111.476 19.1529C111.929 19.5044 112.583 19.9061 113.489 20.2828C114.244 20.6092 114.822 20.8603 115.175 21.0612C115.527 21.262 115.753 21.488 115.93 21.6638C116.055 21.8646 116.131 22.1157 116.131 22.4422C116.131 23.3712 115.426 23.8231 113.992 23.8231C113.438 23.8231 112.86 23.7227 112.18 23.4967C111.501 23.2707 110.872 22.9443 110.343 22.5677L110.218 22.4673V25.6561L110.293 25.6812C110.771 25.9072 111.35 26.0578 112.054 26.2336C112.759 26.3591 113.388 26.4596 113.942 26.4596C115.628 26.4596 117.012 26.083 117.993 25.2544C119 24.4509 119.528 23.4214 119.528 22.0906C119.528 21.1616 119.276 20.333 118.723 19.7053C117.993 19.1027 117.087 18.4749 115.779 17.9728ZM128.159 11.8964C125.869 11.8964 124.032 12.5743 122.749 13.9051C121.466 15.2359 120.811 17.0688 120.811 19.3789C120.811 21.5382 121.466 23.2959 122.724 24.5764C123.982 25.8319 125.693 26.4847 127.832 26.4847C130.071 26.4847 131.858 25.8068 133.141 24.4509C134.45 23.095 135.079 21.2871 135.079 19.0524C135.079 16.8429 134.475 15.0852 133.242 13.8047C132.059 12.5241 130.323 11.8964 128.159 11.8964ZM130.751 22.5928C130.147 23.3712 129.191 23.7478 128.008 23.7478C126.8 23.7478 125.869 23.3712 125.19 22.5426C124.51 21.7642 124.183 20.6343 124.183 19.2031C124.183 17.7217 124.535 16.5918 125.19 15.7883C125.869 14.9848 126.8 14.583 127.983 14.583C129.115 14.583 130.046 14.9597 130.7 15.7381C131.355 16.5164 131.707 17.6463 131.707 19.1278C131.707 20.6343 131.38 21.8144 130.751 22.5928ZM152.567 14.8843V12.1977H149.271V8.07982L149.17 8.10493L146.05 9.03396L145.975 9.05907V12.1977H141.043V10.4401C141.043 9.63658 141.244 9.00885 141.596 8.60711C141.948 8.20536 142.477 8.00449 143.131 8.00449C143.584 8.00449 144.062 8.10493 144.591 8.33091L144.716 8.40624V5.56892L144.641 5.54381C144.188 5.39316 143.584 5.29272 142.804 5.29272C141.823 5.29272 140.967 5.51871 140.187 5.89534C139.407 6.32219 138.828 6.8997 138.4 7.67808C137.973 8.43135 137.746 9.28505 137.746 10.2643V12.1977H135.456V14.8592H137.746V26.1081H141.043V14.8843H145.975V22.0404C145.975 24.9782 147.359 26.4596 150.127 26.4596C150.579 26.4596 151.058 26.3843 151.511 26.3089C151.989 26.2085 152.341 26.083 152.542 25.9825L152.567 25.9574V23.2707L152.442 23.3712C152.24 23.4967 152.064 23.5972 151.762 23.6725C151.511 23.7478 151.284 23.7729 151.108 23.7729C150.454 23.7729 150.001 23.6223 149.674 23.2456C149.372 22.8941 149.221 22.3166 149.221 21.4629V14.8843H152.567Z" fill="#737373"/>
        <path d="M0.606079 0.24585H16.0312V15.6376H0.606079V0.24585Z" fill="#F25022"/>
        <path d="M17.6415 0.24585H33.0666V15.6376H17.6415V0.24585Z" fill="#7FBA00"/>
        <path d="M0.606079 17.2446H16.0312V32.6364H0.606079V17.2446Z" fill="#00A4EF"/>
        <path d="M17.6415 17.2446H33.0666V32.6364H17.6415V17.2446Z" fill="#FFB900"/>
    </g>
    <defs>
        <clipPath id="clip0">
            <rect width="151.987" height="32.3906" fill="white" transform="translate(0.606079 0.24585)"/>
        </clipPath>
    </defs>
</svg>
